<?xml version="1.0" encoding="utf-8"?>
<!-- Generator: Adobe Illustrator 24.2.3, SVG Export Plug-In . SVG Version: 6.00 Build 0)  -->
<svg version="1.1" id="Capa_1" xmlns="http://www.w3.org/2000/svg" xmlns:xlink="http://www.w3.org/1999/xlink" x="0px" y="0px"
	 viewBox="0 0 486.8 486.8" style="enable-background:new 0 0 486.8 486.8;" xml:space="preserve">
<style type="text/css">
	.st0{fill:#FFFFFF;}
</style>
<g>
	<g>
		<path class="st0" d="M150.4,305.7c-1.1-1.9-3.5-2.5-5.4-1.4l-9.9,5.7v-11.4c0-2.2-1.8-3.9-3.9-3.9s-3.9,1.8-3.9,3.9V310l-9.9-5.7
			c-1.9-1.1-4.3-0.5-5.4,1.4c-1.1,1.9-0.5,4.3,1.4,5.4l10,5.8l-10,5.8c-1.9,1.1-2.5,3.5-1.4,5.4s3.5,2.5,5.4,1.4l9.9-5.7v11.4
			c0,2.2,1.8,3.9,3.9,3.9s3.9-1.8,3.9-3.9v-11.4l9.9,5.7c1.9,1.1,4.3,0.5,5.4-1.4c1.1-1.9,0.5-4.3-1.4-5.4l-10-5.8l10-5.8
			C150.9,309.9,151.6,307.5,150.4,305.7z"/>
		<path class="st0" d="M186.8,328c1.1,1.9,3.5,2.5,5.4,1.4l9.9-5.7v11.4c0,2.2,1.8,3.9,3.9,3.9s3.9-1.8,3.9-3.9v-11.4l9.9,5.7
			c1.9,1.1,4.3,0.5,5.4-1.4c1.1-1.9,0.5-4.3-1.4-5.4l-10-5.8l10-5.8c1.9-1.1,2.5-3.5,1.4-5.4c-1.1-1.9-3.5-2.5-5.4-1.4l-9.9,5.7
			v-11.4c0-2.2-1.8-3.9-3.9-3.9c-2.2,0-3.9,1.8-3.9,3.9v11.4l-9.9-5.7c-1.9-1.1-4.3-0.5-5.4,1.4c-1.1,1.9-0.5,4.3,1.4,5.4l10,5.8
			l-10,5.7C186.3,323.7,185.7,326.1,186.8,328z"/>
		<path class="st0" d="M179.7,357.8v6.9c0,1.7,1.4,3,3,3h46.6c1.7,0,3-1.4,3-3v-6.9c0-1.7-1.4-3-3-3h-46.6
			C181,354.8,179.7,356.2,179.7,357.8z"/>
		<path class="st0" d="M293.3,163.8H293v-15.5c0-26.9-22-49.8-48.9-49.3c-26.1,0.5-47.3,21.8-47.3,48.1v1.5c0,2.2,1.8,4,4,4h12.9
			c2.2,0,4-1.8,4-4v-0.5c0-14.5,10.9-27.1,25.3-28.1c15.7-1,28.8,11.5,28.8,27v16.7h-39.8v0.1h-36.8c-6.8,0.2-12.3,5.7-12.3,12.6v70
			c0,7,5.7,12.7,12.7,12.7h97.6c7,0,12.7-5.7,12.7-12.7v-69.9C306,169.5,300.3,163.8,293.3,163.8z M252,214.6
			c-1,0.7-1.3,1.4-1.3,2.6c0.1,5.1,0.1,10.2,0,15.4l0,0c0.1,2.2-1,4.2-2.9,5.2c-4.5,2.3-9-0.9-9-5.2c0,0,0,0,0-0.1
			c0-5.1,0-10.3,0-15.4c0-1-0.2-1.8-1.1-2.4c-4.7-3.4-6.2-9.3-3.9-14.5c2.3-5,7.8-8,13-6.9c5.8,1.1,9.8,5.9,9.9,11.6
			C256.9,209,255.2,212.3,252,214.6z"/>
		<path class="st0" d="M254.5,357.8v6.9c0,1.7,1.4,3,3,3h46.6c1.7,0,3-1.4,3-3v-6.9c0-1.7-1.4-3-3-3h-46.6
			C255.9,354.8,254.5,356.2,254.5,357.8z"/>
		<path class="st0" d="M261.6,328c1.1,1.9,3.5,2.5,5.4,1.4l9.9-5.7v11.4c0,2.2,1.8,3.9,3.9,3.9c2.2,0,3.9-1.8,3.9-3.9v-11.4l9.9,5.7
			c1.9,1.1,4.3,0.5,5.4-1.4s0.5-4.3-1.4-5.4l-10-5.8l10-5.8c1.9-1.1,2.5-3.5,1.4-5.4s-3.5-2.5-5.4-1.4l-9.9,5.7v-11.4
			c0-2.2-1.8-3.9-3.9-3.9c-2.2,0-3.9,1.8-3.9,3.9v11.4l-9.9-5.7c-1.9-1.1-4.3-0.5-5.4,1.4s-0.5,4.3,1.4,5.4l10,5.8l-10,5.8
			C261.1,323.7,260.5,326.1,261.6,328z"/>
		<path class="st0" d="M378.9,354.8h-46.6c-1.7,0-3,1.4-3,3v6.9c0,1.7,1.4,3,3,3h46.6c1.7,0,3-1.4,3-3v-6.9
			C381.9,356.2,380.5,354.8,378.9,354.8z"/>
		<path class="st0" d="M107.9,367.8h46.6c1.7,0,3-1.4,3-3v-6.9c0-1.7-1.4-3-3-3h-46.6c-1.7,0-3,1.4-3,3v6.9
			C104.9,366.4,106.3,367.8,107.9,367.8z"/>
		<path class="st0" d="M336.4,328c1.1,1.9,3.5,2.5,5.4,1.4l9.9-5.7v11.4c0,2.2,1.8,3.9,3.9,3.9c2.2,0,3.9-1.8,3.9-3.9v-11.4l9.9,5.7
			c1.9,1.1,4.3,0.5,5.4-1.4s0.5-4.3-1.4-5.4l-10-5.8l10-5.8c1.9-1.1,2.5-3.5,1.4-5.4s-3.5-2.5-5.4-1.4l-9.9,5.7v-11.4
			c0-2.2-1.8-3.9-3.9-3.9c-2.2,0-3.9,1.8-3.9,3.9v11.4l-9.9-5.7c-1.9-1.1-4.3-0.5-5.4,1.4s-0.5,4.3,1.4,5.4l10,5.8l-10,5.8
			C335.9,323.7,335.2,326.1,336.4,328z"/>
	</g>
</g>
</svg>
